<?xml version="1.0" encoding="utf-8"?>
<!-- Generator: Adobe Illustrator 24.0.0, SVG Export Plug-In . SVG Version: 6.00 Build 0)  -->
<svg version="1.1" id="Layer_1" xmlns="http://www.w3.org/2000/svg" xmlns:xlink="http://www.w3.org/1999/xlink" x="0px" y="0px"
	 viewBox="0 0 1920 4224.4" style="enable-background:new 0 0 1920 4224.4;" xml:space="preserve">
<style type="text/css">
	.st0{fill:#FFFFFF;}
	.st1{fill:#94D4FF;}
	.st2{fill:#DBEEE3;}
	.st3{fill:#E3EEC8;}
	.st4{fill:#6CA75C;}
	.st5{fill:#AED47B;}
	.st6{fill:#DCE27F;}
	.st7{fill:#54984F;}
	.st8{fill:#92C278;}
	.st9{fill:#ACDD6C;}
	.st10{fill:#C1EF78;}
	.st11{fill:#DAFF92;}
</style>
<title>background</title>
<rect x="-140.3" y="-41.3" class="st0" width="2254.2" height="2685.1"/>
<polygon class="st1" points="923.8,2092.2 823.8,2155 1145.9,2116.6 1110.2,2095.4 "/>
<polygon class="st2" points="624.8,2089.8 1637.8,2084.1 1999,2093.8 2048.5,2151.7 682.7,2098.6 "/>
<polygon class="st3" points="994.5,2114.8 446.8,2068.8 -83.9,2118.7 -126,2336.1 "/>
<ellipse class="st4" cx="691.1" cy="2146.1" rx="23.2" ry="17.7"/>
<ellipse class="st4" cx="745.9" cy="2141.3" rx="23.2" ry="17.7"/>
<path class="st5" d="M640.2,2158.1c0,0,513.2-58.7,703.8-57.9s640.2,24.1,640.2,24.1l19,111.9l-769.8,12.9L640.2,2158.1z"/>
<path class="st6" d="M380.1,2183.7c0,0,164.2-23.1,268.1-25.9s742.4,90.6,742.4,90.6l-175,49.6l-841.5-73L380.1,2183.7z"/>
<path class="st7" d="M-47.1,2231.4c0,0,7.4-6.4,68.6-22.5s84.4-5.6,108.6-6.4s2.1,0.8,61.2-4.8s135-9.7,148.7-13.7s100.2-1.6,116,0
	s135,15.3,155.1,20.1c20,4.8,39,0,106.5,5.6s104.4,12.1,123.4,16.9s34.8,14.5,86.5,20.9s155,0,177.2,12.1s105.3,28.4,107.6,33.8
	c2.3,5.5-349.5-1.2-349.5-1.2l-808.6-2l-101.1-38.7L-47.1,2231.4z"/>
<path class="st8" d="M-47.1,2245.9c0,0,283.7-54.1,465.1-44.9s260.5,14.7,399.8,53.2s233.1,20.2,286.9,25.7s131.4,15.4,131.4,15.4
	s-116.7,56.1-186.3,57s-366-14.2-564.3-5.7s-532.7,58-532.7,58v-158.7H-47.1z"/>
<path class="st9" d="M920.7,2266c0,0,587.6-78,808.7-73.2s245.4-22.7,245.4-22.7l15.8,310.9c0,0-1976.5-151.3-2045-150.5
	S920.7,2266,920.7,2266z"/>
<ellipse class="st0" cx="73.2" cy="1946.9" rx="36.9" ry="24.2"/>
<ellipse class="st0" cx="194.2" cy="1946.9" rx="36.9" ry="24.2"/>
<ellipse class="st0" cx="136.4" cy="1933.2" rx="57.7" ry="37.8"/>
<path class="st0" d="M466,689.1c0,0-60.9-41-118.2,3.7C324.1,711.2,466,689.1,466,689.1z"/>
<rect x="-47.1" y="2288" class="st9" width="2021.8" height="1682.9"/>
<path class="st10" d="M-52.3,2703.1c0,0-24.8-149.6,956.4-194.8s1099.1-127.1,1099.1-127.1l27.7,1403.3L-57.7,3809L-52.3,2703.1z"/>
<path class="st11" d="M-44.5,2758.2c0,0,1711.1,612.7,1931.1,397.5s196.8,192.2,196.8,192.2l1.7,895.4l-2181.1,56L-44.5,2758.2z"/>
</svg>
