<svg id="Layer_1" data-name="Layer 1" xmlns="http://www.w3.org/2000/svg" viewBox="0 0 1920 3949.71"><defs><style>.cls-1{fill:#fff;}.cls-2{fill:#94d4ff;}.cls-3{fill:#dbeee3;}.cls-4{fill:#e3eec8;}.cls-5{fill:#6ca75c;}.cls-6{fill:#aed47b;}.cls-7{fill:#dce27f;}.cls-8{fill:#54984f;}.cls-9{fill:#92c278;}.cls-10{fill:#acdd6c;}.cls-11{fill:#c1ef78;}.cls-12{fill:#daff92;}</style></defs><title>background-02</title><rect class="cls-1" x="-140.32" y="-41.35" width="2254.2" height="2685.06"/><polygon class="cls-2" points="923.83 2092.17 823.79 2154.96 1145.85 2116.62 1110.22 2095.39 923.83 2092.17"/><polygon class="cls-3" points="624.77 2089.75 1637.79 2084.11 1998.98 2093.78 2048.47 2151.74 682.68 2098.61 624.77 2089.75"/><polygon class="cls-4" points="994.53 2114.75 446.81 2068.82 -83.92 2118.73 -126.04 2336.09 994.53 2114.75"/><ellipse class="cls-5" cx="691.11" cy="2146.1" rx="23.17" ry="17.71"/><ellipse class="cls-5" cx="745.87" cy="2141.27" rx="23.17" ry="17.71"/><path class="cls-6" d="M640.2,2158.15s513.19-58.74,703.79-57.93,640.24,24.15,640.24,24.15l19,111.9-769.77,12.95Z"/><path class="cls-7" d="M380.13,2183.71s164.16-23.14,268.11-25.95,742.39,90.55,742.39,90.55l-175,49.6L374.15,2225Z"/><path class="cls-8" d="M-47.07,2231.44s7.38-6.44,68.57-22.54,84.38-5.64,108.64-6.44,2.1.8,61.18-4.83,135-9.66,148.72-13.69,100.21-1.61,116,0,135,15.3,155.06,20.13,39,0,106.53,5.63,104.43,12.08,123.41,16.91,34.82,14.49,86.5,20.93,155,0,177.2,12.07,105.31,28.36,107.59,33.82-349.53-1.2-349.53-1.2l-808.64-2L-46.9,2251.57Z"/><path class="cls-9" d="M-47.07,2245.9s283.73-54.09,465.15-44.93,260.53,14.67,399.76,53.18,233.1,20.17,286.9,25.68,131.42,15.44,131.42,15.44-116.66,56.07-186.27,57-366-14.2-564.29-5.73-532.67,58-532.67,58Z"/><path class="cls-10" d="M920.67,2266s587.59-78,808.73-73.2,245.36-22.74,245.36-22.74L1990.55,2481S14,2329.71-54.44,2330.46,920.67,2266,920.67,2266Z"/><ellipse class="cls-1" cx="73.24" cy="1946.88" rx="36.86" ry="24.15"/><ellipse class="cls-1" cx="194.16" cy="1946.88" rx="36.86" ry="24.15"/><ellipse class="cls-1" cx="136.42" cy="1933.19" rx="57.74" ry="37.84"/><path class="cls-1" d="M466,689.06s-60.85-41-118.16,3.68C324.12,711.23,466,689.06,466,689.06Z"/><rect class="cls-10" x="-47.07" y="2288" width="2021.82" height="1682.88"/><path class="cls-11" d="M-52.33,2703.12s-24.78-149.65,956.4-194.83,1099.12-127.05,1099.12-127.05l27.75,1403.29L-57.66,3809Z"/><path class="cls-12" d="M-52.33,2982.65s1720.53,717.17,1940.55,576,187.32-189.18,187.32-189.18l1.72,587.29-2181.13,36.71Z"/></svg>